<svg width="54" height="54" viewBox="0 0 54 54" fill="none" xmlns="http://www.w3.org/2000/svg">
<path d="M46.0555 25.3327C45.5624 25.3759 45.0331 25.2641 44.5302 25.1951C43.5129 25.0593 42.5062 24.8531 41.5174 24.5779C40.4445 24.2906 39.3032 24.4102 38.3132 24.9138C37.3232 25.4174 36.5544 26.2693 36.1548 27.3056L35.7519 28.3798C33.467 27.3357 31.3242 26.0053 29.375 24.4206C27.4759 22.7762 25.7936 20.8969 24.3686 18.8281L25.3584 18.2672C26.3097 17.6937 27.0151 16.7886 27.3392 15.7262C27.6632 14.6638 27.5828 13.5191 27.1136 12.5123C26.6731 11.5775 26.2946 10.6147 25.9805 9.63013C25.8253 9.14681 25.6906 8.63913 25.5802 8.15189C25.1699 6.59688 24.2178 5.23947 22.8955 4.3241C21.5732 3.40874 19.9675 2.99557 18.3676 3.15902L11.6208 3.74928C10.6732 3.83094 9.75344 4.11197 8.92197 4.57395C8.0905 5.03593 7.36605 5.66843 6.79613 6.42998C6.21478 7.21185 5.80958 8.1103 5.60838 9.0636C5.40717 10.0169 5.41472 11.0025 5.63052 11.9526C7.66513 21.1752 12.6857 29.4688 19.9138 35.5475C27.1553 41.6102 36.1948 45.1144 45.6305 45.5166C45.9234 45.5133 46.2157 45.4878 46.5047 45.4401C48.1578 45.2979 49.7006 44.5519 50.8385 43.3444C51.4895 42.6509 51.9866 41.8276 52.2972 40.9286C52.6078 40.0295 52.7248 39.0749 52.6407 38.1275L52.0524 31.4032C51.9048 29.8555 51.2275 28.4062 50.1349 27.3001C49.0422 26.1941 47.6013 25.4992 46.0555 25.3327ZM31.7722 1.73782C31.2567 1.78292 30.7187 1.82998 30.2032 1.87509C29.6132 1.97763 29.088 2.31036 28.7433 2.80009C28.3986 3.28982 28.2625 3.89643 28.3651 4.48648C28.4676 5.07652 28.8003 5.60167 29.2901 5.94639C29.7798 6.29111 30.3864 6.42716 30.9765 6.32463L32.1644 6.22069C35.7312 5.90864 39.2759 7.02627 42.0187 9.32772C44.7614 11.6292 46.4776 14.9259 46.7897 18.4927C46.8249 18.8962 46.8583 19.2772 46.8936 19.6807C46.8956 20.2763 47.1338 20.8469 47.5558 21.2672C47.9779 21.6876 48.5494 21.9234 49.1451 21.923L49.3244 21.9073C49.8857 21.8605 50.4091 21.6048 50.791 21.1909C51.173 20.7769 51.3858 20.2347 51.3874 19.6715C51.3423 19.156 51.2952 18.618 51.2501 18.1025C50.8344 13.3506 48.5495 8.95809 44.8974 5.88971C41.2453 2.82132 36.5246 1.32802 31.7722 1.73782ZM37.8239 19.2771C37.8759 19.8716 38.1619 20.421 38.6191 20.8046C39.0762 21.1882 39.667 21.3745 40.2614 21.3225C40.8559 21.2704 41.4054 20.9844 41.7889 20.5273C42.1725 20.0702 42.3588 19.4794 42.3068 18.8849C42.0987 16.5071 40.9546 14.3092 39.1261 12.7749C37.2976 11.2406 34.9345 10.4955 32.5566 10.7036C31.9622 10.7556 31.4127 11.0416 31.0291 11.4987C30.6455 11.9559 30.4593 12.5466 30.5113 13.1411C30.5633 13.7356 30.8493 14.285 31.3065 14.6686C31.7636 15.0522 32.3544 15.2385 32.9488 15.1864C34.1378 15.0824 35.3193 15.455 36.2336 16.2221C37.1478 16.9893 37.7199 18.0882 37.8239 19.2771Z" fill="black"/>
</svg>
